# xmcd
#
# Track frame offsets: 
#        150
#        19074
#        33009
#        52575
#        75840
#        92736
#        110799
#        129489
#        147133
#        159828
#
# Disc length: 2278 seconds
#
# Revision: 0
# Processed by: cddbd v1.5.2PL0 Copyright (c) Steve Scherf et al.
# Submitted via: ExactAudioCopy v1.3
#
DISCID=6708e40a
DTITLE=Lew Jetton and 61 South - Palestine Blues
DYEAR=2017
DGENRE=Blues
TTITLE0=Will I Go to Hell
TTITLE1=Oh, My My
TTITLE2=For the Pain
TTITLE3=Mexico
TTITLE4=Sold Us Out
TTITLE5=Drinking Again
TTITLE6=Don't Need No Devil
TTITLE7=Christ Have Mercy
TTITLE8=Drama
TTITLE9=Bout Time
EXTD=
EXTT0=
EXTT1=
EXTT2=
EXTT3=
EXTT4=
EXTT5=
EXTT6=
EXTT7=
EXTT8=
EXTT9=
PLAYORDER=
